<svg width="37" height="43" viewBox="0 0 37 43" fill="none" xmlns="http://www.w3.org/2000/svg">
<path d="M8.80668 9.64112C9.60546 7.61292 10.9321 4.84844 12.745 3.0946C15.895 0.0488179 17.048 0.0488178 23.0319 0.0488178C29.0158 0.0488178 37.4134 -0.579788 35.9444 2.67437C34.4753 5.92853 29.3319 9.70711 25.7617 13.3815C22.1915 17.0559 21.1426 18.2089 21.1426 18.2089C21.1426 18.2089 30.5925 17.3684 29.5402 18.9452C28.665 20.2579 19.1561 29.107 14.3287 35.2924C13.3736 36.5183 11.3003 40.0434 11.0085 40.4219C9.39362 42.53 9.9736 37.9388 10.3313 35.0041C10.7515 31.5381 12.4324 25.0298 12.4324 25.0298C12.4324 25.0298 4.66344 25.3701 5.29205 20.4767C5.6324 17.8408 6.36519 15.6528 6.97296 14.1907C7.4939 12.9404 8.21975 11.1275 8.80668 9.63418V9.64112Z" fill="#191B23"/>
<path d="M3.55082 11.6831C4.3496 9.65491 5.67627 6.89043 7.48915 5.13659C10.6391 2.09081 11.7922 2.09081 17.7761 2.09081C23.76 2.09081 32.1576 1.4622 30.6885 4.71636C29.2194 7.97052 24.076 11.7491 20.5058 15.4235C16.9356 19.0979 15.8868 20.2509 15.8868 20.2509C15.8868 20.2509 25.3367 19.4104 24.2844 20.9872C23.4092 22.2999 13.9002 31.149 9.07282 37.3344C8.11775 38.5603 6.0444 42.0854 5.75267 42.4639C4.13775 44.572 4.71774 39.9808 5.07545 37.0461C5.49568 33.5801 7.17658 27.0718 7.17658 27.0718C7.17658 27.0718 -0.592417 27.4121 0.0361878 22.5187C0.376538 19.8828 1.10933 17.6948 1.7171 16.2327C2.23804 14.9789 2.96389 13.1695 3.55082 11.6762V11.6831Z" fill="#00A30F"/>
<g style="mix-blend-mode:multiply">
<path d="M22.9032 3.86866C25.5531 3.86866 28.1265 4.26111 30.568 4.98696C30.6132 4.89666 30.6548 4.80984 30.6965 4.71954C32.1656 1.46538 23.768 2.09398 17.7841 2.09398C11.8002 2.09398 10.6471 2.09398 7.49717 5.13977C5.68429 6.89361 4.35762 9.65808 3.55884 11.6863C3.50328 11.8252 3.44424 11.9711 3.38867 12.1169C8.41057 7.04642 15.3426 3.86866 22.9067 3.86866H22.9032Z" fill="#00D940"/>
</g>
<path d="M5.61875 40.6613C5.68127 39.536 5.85839 38.0704 5.96605 37.1953L5.98689 37.039C6.3828 33.7709 7.98731 27.53 8.00467 27.4675L8.31377 26.2693L7.0774 26.3214C7.0774 26.3214 6.96974 26.3249 6.80651 26.3249C4.93806 26.3249 2.57992 25.9186 1.5797 24.7794C1.15253 24.2932 0.992784 23.6889 1.09003 22.9283C1.41301 20.4278 2.12149 18.3545 2.6598 17.0556C3.12865 15.9234 3.83018 14.18 4.44837 12.6137C5.18811 10.7383 6.41059 8.16829 8.06024 6.57768C10.8525 3.87919 11.5992 3.87919 17.4164 3.87919C18.2186 3.87919 19.066 3.86877 19.9273 3.85488C20.806 3.84446 21.6985 3.83057 22.5737 3.83057C27.5435 3.83057 28.9153 4.33762 29.1897 4.76132C29.2418 4.84467 29.1723 5.02874 29.1272 5.13292C28.2346 7.10904 25.6195 9.49148 23.0877 11.7941C21.8375 12.9332 20.542 14.1105 19.4133 15.274C15.9751 18.8129 14.9471 19.9416 14.9054 19.9868L13.3218 21.7267L15.6625 21.5183C15.6869 21.5183 18.0936 21.303 20.2503 21.303C21.3374 21.303 22.025 21.3551 22.4522 21.4141C21.7958 22.1226 20.6428 23.2861 19.4446 24.4981C16.1835 27.7905 11.2519 32.7707 8.23737 36.6326C7.60181 37.4488 6.53909 39.1679 5.76115 40.4251C5.716 40.498 5.66738 40.5744 5.62223 40.6508L5.61875 40.6613Z" fill="#00D834"/>
<path d="M22.6037 12.0485C22.6732 12.0485 22.7426 12.0485 22.8121 12.0485C22.9024 11.9652 22.9962 11.8818 23.0865 11.7985C25.6182 9.49588 28.2334 7.11343 29.1259 5.13732C29.1711 5.03313 29.2405 4.84906 29.1884 4.76571C28.9141 4.34201 27.5423 3.83496 22.5725 3.83496C21.6973 3.83496 20.8047 3.84885 19.9261 3.85927C19.0648 3.86969 18.2174 3.88358 17.4151 3.88358C11.5979 3.88358 10.8512 3.88358 8.05898 6.58207C6.41279 8.17268 5.18683 10.7427 4.44709 12.6181C3.83238 14.1844 3.13084 15.9278 2.65852 17.06C2.15494 18.272 1.50203 20.1648 1.1582 22.45C6.24608 16.1396 14.0186 12.045 22.6037 12.045V12.0485Z" fill="#07E537"/>
</svg>
