<svg width="42" height="42" viewBox="0 0 42 42" fill="none" xmlns="http://www.w3.org/2000/svg">
<path d="M34.9057 22.6819C34.9596 22.0182 34.6118 21.3926 34.0213 21.0879L25.2647 16.5513L34.1674 12.3649C34.9583 11.9958 35.3102 11.128 35.0163 10.3077C34.715 9.4874 33.8891 9.05702 33.0431 9.27937L9.63308 15.5224C8.95253 15.7011 8.47531 16.2752 8.41361 16.9764C8.35191 17.6776 8.7297 18.3184 9.36907 18.6123L19.3934 23.2112L7.51932 29.2808C6.74704 29.6763 6.41363 30.578 6.74889 31.3799C6.8336 31.5869 6.95605 31.7642 7.10125 31.9117C7.52568 32.3427 8.16977 32.5128 8.78667 32.3149L33.7839 24.1217C34.4122 23.9051 34.8556 23.3419 34.9057 22.6819Z" fill="#003C80"/>
<path d="M33.6782 10.695L10.2682 16.9381C9.77939 17.0694 9.71792 17.7406 10.1815 17.9543L21.2678 23.0418C21.6791 23.2325 21.6896 23.8105 21.2865 24.0137L8.37269 30.6156C7.77749 30.9187 8.15703 31.8184 8.78527 31.6094L33.7825 23.4161C34.2377 23.2658 34.2876 22.6433 33.8615 22.4224L24.0847 17.3563C23.6885 17.1506 23.6967 16.5766 24.1034 16.3846L34.0419 11.7072C34.6444 11.4267 34.3099 10.5273 33.6782 10.695Z" fill="#91D9F8"/>
<path d="M10.1779 17.9507L21.2642 23.0382C21.5633 23.1756 21.6469 23.5177 21.5174 23.7718C24.0774 23.6565 30.6541 23.3021 30.4745 22.7491C30.251 22.0607 16.6389 18.4997 17.0823 16.9609C17.5257 15.4222 23.8124 13.7597 23.8124 13.7597C23.8124 13.7597 23.2196 13.7401 22.3794 13.7111L10.2645 16.942C9.77576 17.0658 9.71801 17.7408 10.1779 17.9507Z" fill="#37B3E7"/>
<path d="M26.7949 23.4444C23.9987 23.5466 21.2672 23.034 21.2672 23.034C21.6785 23.2248 21.689 23.8027 21.286 24.0059L8.77147 30.4007C8.52634 30.5602 8.31134 30.7049 8.13019 30.8386C8.04637 31.003 8.05988 31.1982 8.14499 31.3527C11.5899 30.3362 27.014 24.2341 30.3978 22.8756C29.8374 23.0401 28.2813 23.3883 26.7949 23.4444Z" fill="white"/>
<path d="M22.8648 23.7029C22.7568 23.5932 21.6459 23.1306 20.1048 22.5033L21.2714 23.0377C21.6827 23.2285 21.6932 23.8064 21.2902 24.0096L8.37632 30.6115C8.1277 30.7371 8.04708 30.9729 8.09048 31.1834C10.6507 29.5784 23.2184 24.0621 22.8648 23.7029Z" fill="#006AB6"/>
<path d="M9.86985 17.5165C13.335 16.3088 31.8952 11.7656 32.911 11.4132C34.0247 11.0316 34.0457 11.7109 34.0457 11.7109C34.6407 11.4303 34.3137 10.531 33.6745 10.6987L10.2645 16.9417C9.98257 17.0109 9.84925 17.2687 9.86985 17.5165Z" fill="#37B3E7"/>
<path d="M33.865 22.4187L24.0881 17.3527C23.692 17.147 23.7002 16.573 24.1069 16.381C24.1069 16.381 22.7055 16.6065 22.4389 17.1223C22.1798 17.6306 33.5798 22.4165 34.1149 23.0961C34.2105 22.8604 34.134 22.5634 33.865 22.4187Z" fill="white"/>
</svg>
