<?xml version="1.0" encoding="utf-8"?>
<!-- Generator: Adobe Illustrator 24.3.0, SVG Export Plug-In . SVG Version: 6.00 Build 0)  -->
<svg version="1.1" id="Layer_1" xmlns="http://www.w3.org/2000/svg" xmlns:xlink="http://www.w3.org/1999/xlink" x="0px" y="0px"
	 viewBox="0 0 279 259" style="enable-background:new 0 0 279 259;" xml:space="preserve">
<style type="text/css">
	.st0{fill:#596283;}
	.st1{fill:#FFFFFF;}
	.st2{fill:#548BC7;}
	.st3{fill:#B53864;}
	.st4{fill:none;stroke:#000000;stroke-width:5;stroke-miterlimit:10;}
	.st5{fill:none;stroke:#000000;stroke-width:3;stroke-miterlimit:10;}
	.st6{fill:none;stroke:#000000;stroke-width:2;stroke-miterlimit:10;}
	.st7{fill:#EDAFA8;}
	.st8{fill:#121111;}
	.st9{fill:#D69C94;}
</style>
<path class="st0" d="M48.2,163.7l-6.1,25.9l-4.4,24.2l-1.8,18.8l3.9,18.3l6.9,4.9l9.3-2.5l6.5-4.1l4.7,2.9l10.3,2.6l8.5-1.8l6.2-7.7
	l1.5-7.5l2.1,15.1l15.8,0.7l17.9-0.3l17.7,0.7l13.9-1.1l15.9-2.3l12.1-4.6l8.8-9.5l7-14.4l5.8-10l12.5-10.8l13.6-11.1l11.8-8.8
	l9.3-7.5l9.2-10.6l6.3-4.6l3.3-13.9l-9.9-8.3l-12.9,0.6L238.8,148l-15.3,18.2l-12.2,20.9l-7.5,12.8l-2.9-10l-6.1-10.8l-8.9-11.4
	l-9.3-7.8l-8.5-4.7l-5.4-3.3"/>
<path class="st1" d="M244.9,143l23.4,22.2c0,0,14.5-15.5,5.9-22.5c-8.6-7-10.8-9.7-18.2-6C248.6,140.3,244.9,143,244.9,143z"/>
<path class="st1" d="M35.3,234.6l58.7,0.8L88,252.6l-9.3,3.6L66.2,254l-4.6-5.6l-4.6,5.9l-9.2,2.2l-9-7.6L35.3,234.6z"/>
<path class="st1" d="M99.4,227.4c0,0,17.4,0.3,21.5,10.5c4.2,10.2,7.9,16.5,7.9,16.5l-32.9-1.2l-1.2-12.3l-0.7-6.7L99.4,227.4z"/>
<path class="st2" d="M70.5,167.5c0,0-7.5,6.6-7.4,9.6c0.1,2.5,6.4,7.5,6.4,7.5l6.8-1.4l0.5-9.4l-1.4-4.9L70.5,167.5z"/>
<path class="st2" d="M62.3,190.3l14.3,5.9l0.5,8.9L60,197L62.3,190.3z"/>
<path class="st3" d="M64.7,184.4l11,2.2l1.1,9.2l-14.6-5.8L63,185L64.7,184.4z"/>
<path class="st3" d="M59.9,197.9l18.1,6.4l-11.6,10l-9.1-10.8L59.9,197.9z"/>
<path class="st4" d="M157.4,150.1c0,0,27.3,10.4,36.9,28.2c15.9,29.5,17.9,75.9-36.5,75.9c-41.6,0-61.8-1.2-61.8-1.2
	s-5.2-21.7,6.1-28"/>
<path class="st4" d="M48.6,164c0,0-25.7,86.8-2.6,91.4c23.1,4.6,17.4-24.3,15.1-36.7"/>
<path class="st4" d="M63.4,238.2c0,8.5-2.8,15.3,11.7,17.5c19.6,2.9,19.3-18.8,22.3-45.4"/>
<g>
	<path d="M52.1,208.8c-0.1-0.1-0.2-0.1-0.2-0.1c0,0,0,0,0,0c0,0,0.1,0,0.1,0c0,0,0.1,0,0.2,0c0.1-0.1,0.1-0.1,0.1-0.2
		c0-0.2,0-0.1,0-0.1l0.1,0.1c0.1,0.2,0.3,0.3,0.4,0.5c0.3,0.3,0.6,0.6,0.9,1c0.6,0.6,1.3,1.2,1.9,1.8c0.6,0.6,1.3,1.2,2,1.7
		c0.7,0.6,1.3,1.1,2,1.6c0.7,0.5,1.4,1,2.2,1.4c0.7,0.4,1.4,0.9,1.9,1.5c1.1,1.2,2.1,2.4,3.3,4.3l-0.2,0.5c-2.2,0.7-4.3,0.2-6.1-0.7
		c-0.9-0.5-1.6-1.1-2.3-1.8c-0.6-0.8-1.2-1.6-1.7-2.3c-0.6-0.7-1.1-1.5-1.7-2.3c-0.5-0.8-1-1.6-1.4-2.4c-0.4-0.8-0.9-1.6-1.2-2.5
		c-0.2-0.4-0.4-0.9-0.5-1.3c-0.1-0.2-0.1-0.5-0.2-0.7c0-0.1,0-0.1,0-0.2c0-0.1,0-0.1,0-0.3c0,0,0.1-0.1,0.2-0.2
		c0.1-0.1,0.2-0.1,0.2,0c0,0,0.1,0,0.1,0l0,0c0.2,0.1,0.2,0.2,0.3,0.3L52.1,208.8z"/>
</g>
<path class="st5" d="M70.7,185.7c4.2,0,7.5-3.7,7.5-8.4c0-4.6-3.4-8.4-7.5-8.4c-4.2,0-7.5,3.7-7.5,8.4
	C63.1,181.9,66.5,185.7,70.7,185.7z"/>
<path class="st5" d="M64.7,183.5l-7,20.1l8.5,10.8l11.6-8.5l-2.8-21.1"/>
<path class="st6" d="M63,190.1l12.1,5.1"/>
<path class="st6" d="M59.1,196.9l18.7,8"/>
<path class="st4" d="M203.2,223.7c7.1-24.4,96.7-66,67.1-84c-29.6-17.9-62.5,53.7-67.7,61.2"/>
<g>
	<path class="st0" d="M70.9,39.6c0,0-17.3,2.4-22.2,4.5c-5.6,2.4-19.2,14-19.2,14l-8.7,17.1l-7.1,19.9c0,0-1.3,21.9-0.2,28.3
		c1.1,6.2,4,17.2,7.5,21.7c4,5,20.9,15,20.9,15l13.9,3.3c0,0,23.6,3.9,23.7,3.4c0.1-0.5,19.2-0.6,19.2-0.6l22.6-0.7l24.9-8.5
		l18.9-11.9L172,133l7.2-15.8l-3.3-24.3l-5.8-20.2l-6-10.7l-7.5-9.7l-14-7.8l-16.9-4.2L103,38.5L70.9,39.6z"/>
	<path class="st0" d="M129.2,41.5l19.5-26.8c0,0,10.2-8.1,12.4-10.6c2.2-2.5,11,4.5,12.7,7.4c2.4,4,4.7,17.5,4.7,17.5l-2.7,18.7
		l-3.5,16.3l-2.8,6.2"/>
	<path class="st0" d="M77,39.7L62.1,21.2L47.5,10.5c0,0-12.8-5.4-16.9-3.9c-2.2,0.8-5.8,7.5-5.8,7.5L27,37l8.8,17.3l5-3.2l12.5-7.4
		l11.3-3.1L77,39.7z"/>
	<path class="st7" d="M43.5,144.6c6.7,0,12.1-2.6,12.1-5.9s-5.4-5.9-12.1-5.9c-6.7,0-12.1,2.6-12.1,5.9S36.8,144.6,43.5,144.6z"/>
	<path class="st7" d="M116.2,144c6.7,0,12.1-2.6,12.1-5.9c0-3.2-5.4-5.9-12.1-5.9c-6.7,0-12.1,2.6-12.1,5.9
		C104.1,141.4,109.5,144,116.2,144z"/>
	<path class="st7" d="M148.2,46c0,0,4.3-23.8,15.1-19.5c10.7,4.3-2,30.1-0.2,33.3"/>
	<path class="st7" d="M41.5,49.3c0,0-9.5-19.9-5-20.7c4.5-0.8,12.4,18.4,13.8,16.7"/>
	<path class="st8" d="M50,98.5c-2.9,1.4-9.2,10.5-9.2,10.5l1.8,12.7c0,0,4.3,5.8,9.8,7.5c4.4,1.4,8.1-0.8,8.1-0.8l5.6-6.9l0.6-8.7
		l-3.2-9.6l-5.6-4.6C57.9,98.6,51.7,97.6,50,98.5z"/>
	<path class="st8" d="M99.4,98.5c-2.9,1.4-9.2,10.5-9.2,10.5l1.8,12.7c0,0,4.3,5.8,9.8,7.5c4.4,1.4,8.1-0.8,8.1-0.8l5.6-6.9l0.6-8.7
		l-3.2-9.6l-5.6-4.6C107.3,98.6,101.2,97.6,99.4,98.5z"/>
	<path class="st9" d="M75.1,119.5l-3.9,3.2l4.1,4.9l3.2-0.3c0,0,3.1-5.1,1.9-5.2C79.2,122.1,75.1,119.5,75.1,119.5z"/>
	<path class="st1" d="M57.9,111.9c2.7,0,4.9-2.2,4.9-4.9s-2.2-4.9-4.9-4.9c-2.7,0-4.9,2.2-4.9,4.9S55.2,111.9,57.9,111.9z"/>
	<path class="st1" d="M106.3,111.9c2.7,0,4.9-2.2,4.9-4.9s-2.2-4.9-4.9-4.9c-2.7,0-4.9,2.2-4.9,4.9S103.6,111.9,106.3,111.9z"/>
	<path class="st1" d="M49,125.3c1.1,0,2-0.9,2-2c0-1.1-0.9-2-2-2c-1.1,0-2,0.9-2,2C47.1,124.4,47.9,125.3,49,125.3z"/>
	<path class="st1" d="M98.1,125.5c1.1,0,2-0.9,2-2c0-1.1-0.9-2-2-2c-1.1,0-2,0.9-2,2C96.2,124.6,97,125.5,98.1,125.5z"/>
	<path class="st4" d="M74.8,38.9c15.4-4,43.7-3.7,56.3,2.6"/>
	<path class="st4" d="M169.2,70c9,17.3,8.6,37,8.9,42.6c0.4,34.9-34.5,55.2-81.6,55.2c-47.1,0-83.1-8.4-83.1-49.9
		c0-15.6-0.5-27.6,7.2-43.5c4-8.2,10.6-15.9,16.7-21.3"/>
	<path class="st4" d="M54.2,130.1c7.4,0,13.4-7.3,13.4-16.2s-6-16.2-13.4-16.2c-7.4,0-13.4,7.3-13.4,16.2S46.8,130.1,54.2,130.1z"/>
	<path class="st4" d="M103.2,130.1c7.4,0,13.4-7.3,13.4-16.2s-6-16.2-13.4-16.2s-13.4,7.3-13.4,16.2S95.8,130.1,103.2,130.1z"/>
	<path class="st4" d="M129.7,40.4c-0.8,1.7,15.6-32,31.1-35.5c3.6-0.8,7.1,0,10.3,3.2c17.2,17.2-2.1,63.6-2.1,63.6"/>
	<path class="st4" d="M61.5,42.2c0,0-28-52.4-34.2-32.4c-6.2,20,10.1,45.9,10.1,45.9"/>
	<path class="st4" d="M32.4,5.4c0,0,29.1,0,43.5,36.2"/>
	<path class="st4" d="M140.1,44.1c0,0,13.6-38.8,25-39.3"/>
	<path class="st4" d="M75.6,127.7c2.3,0,4.2-1.9,4.2-4.2c0-2.3-1.9-4.2-4.2-4.2c-2.3,0-4.2,1.9-4.2,4.2
		C71.4,125.9,73.2,127.7,75.6,127.7z"/>
	<path class="st4" d="M75,128.5c0,0,1.1,11.8-1.3,14.5c-2,2.4-13.7,3.4-9.4-8.1"/>
	<path class="st4" d="M75.3,128.6c0,0-2.3,12.1,0.2,14.9c2,2.3,12.8,1.7,9.6-7.5"/>
	<g>
		<path d="M-0.6,113.8c-0.6-1-0.2-2.5,0.6-3.5c0.8-1,1.7-1.7,2.7-2.3c2-1.1,4.1-1.7,6.1-2c2.1-0.3,4.1-0.3,6.2,0
			c2,0.3,4.1,0.8,6.1,1.9c-2,1-3.9,1.6-5.9,2c-1.9,0.5-3.8,0.8-5.7,1l-5.5,0.7c-0.9,0.1-1.7,0.3-2.5,0.5
			C0.8,112.5,0,112.8-0.6,113.8z"/>
	</g>
	<g>
		<path d="M4.5,138.1c-0.3-0.5-0.3-1.1-0.1-1.7c0.1-0.3,0.2-0.6,0.3-0.9c0.1-0.3,0.3-0.5,0.5-0.8c0.7-1,1.5-1.7,2.4-2.3
			c1.8-1.2,3.7-2,5.6-2.5c1.9-0.5,3.9-0.8,5.9-0.7c2,0,4,0.3,6,1.1c-1.8,1.3-3.6,2.1-5.3,2.8c-1.8,0.7-3.6,1.3-5.3,1.7
			c-1.8,0.5-3.5,0.8-5.3,1.2c-0.9,0.2-1.7,0.4-2.5,0.6C5.8,136.9,5.1,137.2,4.5,138.1z"/>
	</g>
	<g>
		<path d="M164.6,108.2c2-1.2,4.1-1.8,6.3-2.2c2.1-0.4,4.3-0.5,6.5-0.3c2.2,0.2,4.4,0.6,6.5,1.5c1,0.5,2.1,1,3,1.8
			c0.9,0.8,1.8,1.8,2,3c-1.1-0.5-2-0.6-3-0.7c-1-0.1-1.9-0.2-2.9-0.2c-2-0.1-3.9-0.2-5.9-0.3c-2-0.2-4-0.4-6.1-0.8
			C168.8,109.5,166.7,109.1,164.6,108.2z"/>
	</g>
	<g>
		<path d="M161,128.8c1.8-1,3.7-1.4,5.6-1.6c1.9-0.2,3.8,0,5.7,0.4c1.9,0.5,3.7,1.2,5.4,2.6c0.8,0.7,1.6,1.5,2.1,2.5
			c0.5,1,0.7,2.2,0.4,3.2c-0.7-0.7-1.5-1.2-2.2-1.5c-0.7-0.3-1.5-0.5-2.2-0.7c-1.5-0.4-3.1-0.7-4.7-1.1c-1.6-0.4-3.2-0.8-4.9-1.4
			C164.5,130.5,162.8,129.9,161,128.8z"/>
	</g>
</g>
<g>
	<path d="M116.6,225.5c-1.7-0.3-3.3-0.4-4.9-0.3c-0.8,0-1.6,0.1-2.4,0.2c-0.8,0.1-1.5,0.2-2.3,0.4c-0.8,0.2-1.5,0.5-2.2,0.8
		c-0.3,0.1-0.7,0.3-1.1,0.4c-0.4,0.1-0.7,0.2-1.1,0.2c-1.5,0.2-3.1,0.3-5.2-0.1l-0.3-0.4c0.8-2,2.3-3.3,3.9-4.2
		c0.4-0.2,0.9-0.4,1.3-0.5c0.5-0.1,0.9-0.1,1.4-0.2c0.9,0,1.9,0,2.8,0.1c0.9,0,1.8,0.1,2.7,0.3c0.9,0.2,1.8,0.4,2.6,0.6
		c1.7,0.5,3.3,1.3,4.8,2.3L116.6,225.5z"/>
</g>
</svg>
