<svg width="35" height="35" viewBox="0 0 35 35" fill="none" xmlns="http://www.w3.org/2000/svg">
<g clip-path="url(#clip0_359_239)">
<path d="M29.8742 29.8744C36.7084 23.0402 36.7084 11.9598 29.8742 5.12563C23.04 -1.70854 11.9596 -1.70854 5.12538 5.12563C-1.70882 11.9598 -1.70882 23.0402 5.12538 29.8744C11.9596 36.7085 23.04 36.7085 29.8742 29.8744Z" fill="#D6D6FF"/>
<path fill-rule="evenodd" clip-rule="evenodd" d="M32.8546 14.3686C32.8546 24.0337 25.0196 31.8686 15.3545 31.8686C10.0384 31.8686 5.27598 29.4983 2.06641 25.7566C5.01581 31.2584 10.8211 34.9999 17.5001 34.9999C27.1652 34.9999 35.0002 27.165 35.0002 17.4999C35.0002 13.1511 33.4138 9.17264 30.7882 6.11182C32.1068 8.57132 32.8547 11.3825 32.8547 14.3685L32.8546 14.3686Z" fill="#C5C5EB"/>
<path d="M25.4188 25.4194C29.7924 21.0458 29.7924 13.9547 25.4188 9.58105C21.0451 5.20741 13.954 5.20741 9.58034 9.58105C5.20668 13.9547 5.20668 21.0458 9.58034 25.4194C13.954 29.7931 21.0451 29.7931 25.4188 25.4194Z" fill="#FF700D"/>
<path fill-rule="evenodd" clip-rule="evenodd" d="M17.5 26.5011C12.5368 26.5011 8.49902 22.4633 8.49902 17.5002C8.49902 12.5371 12.5368 8.49902 17.5 8.49902C22.4631 8.49902 26.501 12.5369 26.501 17.5002C26.5008 22.4633 22.4632 26.5011 17.5 26.5011Z" fill="#DEDEDE"/>
<path fill-rule="evenodd" clip-rule="evenodd" d="M17.2021 8.50454C17.3011 8.50137 17.4003 8.49902 17.5002 8.49902C17.6 8.49902 17.6994 8.50137 17.7984 8.50454V10.9684C17.7984 11.1331 17.6649 11.2668 17.5002 11.2668C17.3354 11.2668 17.2021 11.1333 17.2021 10.9686V8.50454Z" fill="#B4B4B4"/>
<path fill-rule="evenodd" clip-rule="evenodd" d="M17.5002 26.5011C17.4004 26.5011 17.3012 26.4988 17.2021 26.4956V24.0319C17.2021 23.8672 17.3355 23.7336 17.5002 23.7336C17.6648 23.7336 17.7984 23.8671 17.7984 24.0319V26.4956C17.6995 26.4988 17.6001 26.5011 17.5002 26.5011Z" fill="#B4B4B4"/>
<path fill-rule="evenodd" clip-rule="evenodd" d="M26.4952 17.2021C26.4984 17.3012 26.5007 17.4004 26.5007 17.5003C26.5007 17.6001 26.4984 17.6994 26.4952 17.7984H24.0314C23.8668 17.7984 23.7334 17.6649 23.7334 17.5003C23.7334 17.3356 23.8667 17.2021 24.0314 17.2021H26.4952Z" fill="#B4B4B4"/>
<path fill-rule="evenodd" clip-rule="evenodd" d="M21.7393 9.56177C21.9148 9.65584 22.0867 9.75561 22.255 9.86071L21.6364 10.9321C21.581 11.0278 21.481 11.0812 21.378 11.0812C21.3275 11.0812 21.2763 11.0682 21.2293 11.0413C21.0865 10.959 21.0377 10.7766 21.1201 10.6341L21.7393 9.56177Z" fill="#B4B4B4"/>
<path fill-rule="evenodd" clip-rule="evenodd" d="M25.1393 12.7456C25.2444 12.9139 25.3441 13.0858 25.4383 13.2614L24.366 13.8804C24.3191 13.9074 24.2678 13.9203 24.2174 13.9203C24.1143 13.9203 24.0141 13.8669 23.9589 13.7712C23.8765 13.6287 23.9257 13.4463 24.0681 13.364L25.1393 12.7456Z" fill="#B4B4B4"/>
<path fill-rule="evenodd" clip-rule="evenodd" d="M25.4381 21.7389C25.3442 21.9144 25.2443 22.0864 25.1393 22.2547L24.0681 21.6364C23.9255 21.554 23.8766 21.3718 23.959 21.2291C24.0412 21.0867 24.2231 21.0377 24.3661 21.12L25.4381 21.7389Z" fill="#B4B4B4"/>
<path fill-rule="evenodd" clip-rule="evenodd" d="M22.2549 25.1394C22.0866 25.2446 21.9146 25.3445 21.739 25.4385L21.1201 24.3662C21.0376 24.2234 21.0868 24.0412 21.2292 23.9589C21.3722 23.8765 21.5541 23.9257 21.6363 24.0681L22.2549 25.1394Z" fill="#B4B4B4"/>
<path fill-rule="evenodd" clip-rule="evenodd" d="M8.50445 17.7984C8.50128 17.6995 8.49902 17.6001 8.49902 17.5003C8.49902 17.4004 8.50128 17.3013 8.50445 17.2021H10.9685C11.133 17.2021 11.2665 17.3356 11.2665 17.5003C11.2665 17.6649 11.1331 17.7984 10.9685 17.7984H8.50445Z" fill="#B4B4B4"/>
<path fill-rule="evenodd" clip-rule="evenodd" d="M13.2609 25.4385C13.0855 25.3444 12.9135 25.2445 12.7451 25.1395L13.3635 24.068C13.4457 23.9254 13.6283 23.8768 13.7707 23.9588C13.9133 24.0412 13.9622 24.2233 13.8799 24.3661L13.2609 25.4385Z" fill="#B4B4B4"/>
<path fill-rule="evenodd" clip-rule="evenodd" d="M9.86056 22.2549C9.75546 22.0867 9.6556 21.9146 9.56152 21.739L10.6337 21.1201C10.7762 21.0382 10.9586 21.0868 11.0409 21.2292C11.1232 21.3718 11.0741 21.5541 10.9317 21.6365L9.86056 22.2549Z" fill="#B4B4B4"/>
<path fill-rule="evenodd" clip-rule="evenodd" d="M9.56152 13.2613C9.6556 13.0859 9.75546 12.914 9.86056 12.7456L10.932 13.3641C11.0747 13.4464 11.1235 13.6288 11.0412 13.7713C10.9858 13.8668 10.8857 13.9203 10.7826 13.9203C10.7321 13.9203 10.6808 13.9074 10.6339 13.8804L9.56152 13.2613Z" fill="#B4B4B4"/>
<path fill-rule="evenodd" clip-rule="evenodd" d="M12.7451 9.8608C12.9136 9.7557 13.0854 9.65593 13.2609 9.56177L13.88 10.6341C13.9623 10.7766 13.9132 10.959 13.7708 11.0413C13.7238 11.0684 13.6727 11.0814 13.6219 11.0814C13.5188 11.0814 13.4187 11.028 13.3634 10.9323L12.7451 9.8608Z" fill="#B4B4B4"/>
<path fill-rule="evenodd" clip-rule="evenodd" d="M17.4998 18.6604C16.8602 18.6604 16.3398 18.14 16.3398 17.5003C16.3398 16.8606 16.8602 16.3403 17.4998 16.3403C18.1395 16.3403 18.6598 16.8607 18.6598 17.5003C18.6598 18.14 18.1395 18.6604 17.4998 18.6604Z" fill="#FF700D"/>
<path fill-rule="evenodd" clip-rule="evenodd" d="M17.5 20.3372C17.3354 20.3372 17.2019 20.2037 17.2019 20.039V18.3621C17.2019 18.1976 17.3353 18.064 17.5 18.064C17.6646 18.064 17.7982 18.1975 17.7982 18.3621V20.039C17.7982 20.2036 17.6647 20.3372 17.5 20.3372ZM17.0323 17.0744C16.9345 17.0744 16.8387 17.0263 16.7817 16.9381L14.999 14.1812C14.9096 14.043 14.9492 13.8585 15.0875 13.7691C15.2254 13.6795 15.4103 13.7193 15.4997 13.8576L17.2823 16.6148C17.3718 16.7531 17.3322 16.9375 17.1939 17.0269C17.1438 17.059 17.0878 17.0744 17.0322 17.0744H17.0323Z" fill="#FF700D"/>
</g>
<defs>
<clipPath id="clip0_359_239">
<rect width="35" height="35" fill="white"/>
</clipPath>
</defs>
</svg>
