<svg width="45" height="42" viewBox="0 0 45 42" fill="none" xmlns="http://www.w3.org/2000/svg">
<path d="M23.4874 41.9116C23.6237 41.8969 23.7599 41.8822 23.8962 41.8674C24.0987 41.8453 24.2975 41.8233 24.4964 41.7975C24.64 41.7791 24.7836 41.7533 24.9272 41.7312C25.115 41.7017 25.3028 41.6723 25.4906 41.6391C25.6379 41.6097 25.7852 41.5802 25.9325 41.5507C26.1092 41.5139 26.2896 41.4771 26.4664 41.4366C26.6174 41.4035 26.7646 41.3666 26.9119 41.3261C27.0813 41.2819 27.2507 41.2378 27.4201 41.1936C27.5711 41.1531 27.722 41.1089 27.8693 41.0647C28.0314 41.0168 28.1934 40.9653 28.3554 40.9137C28.5064 40.8622 28.6573 40.8143 28.8083 40.7628C28.963 40.7075 29.1176 40.6523 29.2686 40.5934C29.2944 40.5823 29.3165 40.575 29.3422 40.5676C37.9735 37.7507 44.1928 29.9811 44.1928 20.8564C44.1928 12.9285 39.498 6.02419 32.6084 2.49657C32.3654 2.37137 32.1223 2.25355 31.8756 2.1394C31.7762 2.09153 31.6768 2.04734 31.5774 2.00316C31.327 1.88901 31.0729 1.77853 30.8152 1.67543C30.7378 1.64597 30.6605 1.61283 30.5832 1.58337C30.3659 1.49868 30.1487 1.41768 29.9277 1.33667C29.8393 1.30353 29.751 1.27406 29.6589 1.24092C29.3864 1.14887 29.1139 1.06048 28.8378 0.975789C28.7494 0.950013 28.6647 0.924251 28.5763 0.898475C28.3186 0.82483 28.0608 0.754864 27.7994 0.688583C27.7515 0.677536 27.7036 0.662816 27.6558 0.651769C27.3575 0.581806 27.0592 0.515511 26.7536 0.452912C26.6726 0.438183 26.5916 0.41977 26.5106 0.405041C26.2049 0.346125 25.8993 0.294579 25.59 0.250392C25.5348 0.243027 25.4759 0.235664 25.4206 0.228299C25.1371 0.187794 24.8499 0.154643 24.5626 0.125185C24.5037 0.11782 24.4411 0.11046 24.3822 0.106778C24.0619 0.0773196 23.7415 0.0552251 23.4175 0.0368137C23.3475 0.0331315 23.2738 0.0294609 23.2039 0.0257786C22.8688 0.0110495 22.5337 0 22.1949 0C21.8267 0 21.4622 0.0110495 21.1013 0.0257786C20.9798 0.0294609 20.8583 0.0441927 20.7404 0.0515572C20.5011 0.0662863 20.2618 0.0809983 20.0224 0.103092C19.8788 0.117821 19.7352 0.136234 19.5953 0.150963C19.3817 0.173057 19.1681 0.198841 18.9582 0.228299C18.8073 0.250393 18.6563 0.27617 18.5053 0.298263C18.3065 0.331404 18.1076 0.360869 17.9125 0.397692C17.7578 0.42715 17.6031 0.460271 17.4485 0.493412C17.257 0.533917 17.0692 0.574432 16.8814 0.618619C16.7268 0.655442 16.5721 0.695949 16.4138 0.736454C16.2333 0.784324 16.0492 0.83218 15.8688 0.883732C15.7105 0.927919 15.5558 0.975791 15.4012 1.02366C15.2244 1.07889 15.0513 1.13414 14.8783 1.19305C14.7236 1.2446 14.5653 1.29984 14.4106 1.35507C14.2449 1.41767 14.0755 1.48027 13.9098 1.54287C13.7552 1.60179 13.5968 1.66439 13.4459 1.72699C13.2838 1.79327 13.1255 1.86323 12.9672 1.93319C12.8125 1.99947 12.6579 2.06944 12.5032 2.14309C12.3522 2.21305 12.2013 2.29037 12.0503 2.36401C11.8956 2.44134 11.7373 2.51867 11.5863 2.596C11.4464 2.66964 11.3065 2.74697 11.1665 2.8243C11.0082 2.91267 10.8499 2.99738 10.6952 3.08943C10.57 3.16308 10.4485 3.2404 10.3233 3.31405C10.1576 3.41347 9.99189 3.51289 9.83355 3.61599C9.74149 3.67491 9.64943 3.74119 9.55738 3.80011C8.86511 4.26407 8.20231 4.75749 7.57264 5.29142C7.54318 5.3172 7.51373 5.3393 7.48427 5.36507C7.29647 5.52341 7.11604 5.69278 6.93193 5.85849C6.87301 5.91372 6.80673 5.96896 6.74781 6.02419C6.57475 6.18621 6.40903 6.34824 6.24333 6.51394C6.17705 6.58022 6.11078 6.64281 6.0445 6.70909C5.88248 6.87479 5.72782 7.04417 5.56948 7.21356C5.50688 7.28352 5.4406 7.35349 5.37432 7.42345C5.22335 7.59652 5.07237 7.7696 4.92508 7.94635C4.86248 8.02 4.80357 8.09363 4.74466 8.16359C4.59736 8.34402 4.45744 8.52445 4.31751 8.71225C4.26228 8.78589 4.20704 8.85955 4.1518 8.9332C4.01188 9.12099 3.87564 9.31247 3.74308 9.50763C3.69521 9.57759 3.64733 9.65122 3.59946 9.72119C3.4669 9.92003 3.33434 10.1226 3.20914 10.3288C3.16864 10.3951 3.12814 10.4613 3.08763 10.5313C2.95875 10.7449 2.83355 10.9584 2.71203 11.1757C2.67889 11.2346 2.64943 11.2898 2.61998 11.3488C2.49478 11.5771 2.37327 11.809 2.25912 12.0447C2.23703 12.0889 2.21861 12.1294 2.19652 12.1736C2.075 12.424 1.95349 12.6781 1.84302 12.9358C1.83566 12.9506 1.83197 12.9653 1.8246 12.9763C1.07342 14.718 0.561589 16.5739 0.333288 18.5108C0.241231 19.2767 0.193359 20.0573 0.193359 20.8453C0.193359 22.4655 0.395884 24.0415 0.767793 25.5586C2.02713 33.2215 8.15075 39.4224 16.1155 41.3666C16.1192 41.3666 16.1229 41.3666 16.1266 41.3666C16.4469 41.444 16.7673 41.5139 17.095 41.5802C17.1171 41.5839 17.1355 41.5913 17.1576 41.5949C17.4595 41.6539 17.7689 41.7054 18.0782 41.7496C18.1224 41.757 18.1628 41.7643 18.207 41.7717C18.4943 41.8122 18.7888 41.8453 19.0797 41.8748C19.1423 41.8822 19.2049 41.8932 19.2675 41.8969C19.5474 41.9227 19.8309 41.9411 20.1145 41.9595C20.1918 41.9632 20.2654 41.9705 20.3428 41.9742C20.7036 41.9889 21.0645 42 21.429 42C21.7936 42 22.1213 41.9889 22.4637 41.9742C22.5779 41.9705 22.6921 41.9595 22.8062 41.9521C23.0345 41.9374 23.2591 41.9227 23.4874 41.9043V41.9116Z" fill="#191B23"/>
<path d="M20.9153 39.7935C32.4665 39.7935 41.8306 30.919 41.8306 19.9718C41.8306 9.02462 32.4665 0.150146 20.9153 0.150146C9.36409 0.150146 0 9.02462 0 19.9718C0 30.919 9.36409 39.7935 20.9153 39.7935Z" fill="#6BDF3B"/>
<path d="M23.165 1.31376C25.8273 1.31376 28.3975 1.74089 30.8094 2.51785C27.8599 1.00811 24.4869 0.150146 20.9077 0.150146C10.1665 0.150146 1.29596 7.86451 0.125 17.7514C2.89039 8.37266 12.2728 1.31376 23.165 1.31376Z" fill="#94F462"/>
<path d="M20.1877 39.2008C9.22924 39.2008 0.314453 30.9378 0.314453 20.7784C0.314453 10.619 9.22924 2.35596 20.1877 2.35596C31.1461 2.35596 40.0609 10.619 40.0609 20.7784C40.0609 30.9378 31.1461 39.2008 20.1877 39.2008Z" fill="#236E05"/>
<path d="M20.1877 40.085C31.1634 40.085 40.0609 31.8371 40.0609 21.6627C40.0609 11.4882 31.1634 3.24023 20.1877 3.24023C9.212 3.24023 0.314453 11.4882 0.314453 21.6627C0.314453 31.8371 9.212 40.085 20.1877 40.085Z" fill="#37A60C"/>
<path d="M17.2947 39.0836C15.6008 39.0836 13.9475 38.9105 12.3457 38.5864C14.7539 39.5512 17.4088 40.0888 20.1926 40.0888C30.3299 40.0888 38.7108 33.0152 39.9112 23.9126C36.7076 32.6506 27.6897 39.0836 17.291 39.0836H17.2947Z" fill="#2D9103"/>
<path d="M20.1909 37.8654C10.5544 37.8654 2.71484 30.5966 2.71484 21.6671C2.71484 12.7376 10.5544 5.46875 20.1909 5.46875C29.8274 5.46875 37.6633 12.7376 37.6633 21.6671C37.6633 30.5966 29.8237 37.8654 20.1909 37.8654Z" fill="#236E05"/>
<path d="M36.8722 21.6619C36.8722 30.2084 29.4009 37.1348 20.1842 37.1348C10.9674 37.1348 3.49609 30.2084 3.49609 21.6619C3.49609 13.1153 10.9674 6.18896 20.1842 6.18896C29.4009 6.18896 36.8722 13.1153 36.8722 21.6619Z" fill="#D8E0E9"/>
<path opacity="0.65" d="M33.4639 12.7066C33.5707 12.7066 33.6812 12.7066 33.788 12.7103C30.7648 8.76656 25.7974 6.18896 20.1783 6.18896C10.9616 6.18896 3.49023 13.1153 3.49023 21.6619C3.49023 23.8086 3.96524 25.8523 4.81953 27.7119C10.7885 18.7676 21.4781 12.7066 33.4639 12.7066Z" fill="#F9F9FA"/>
<path d="M21.4956 36.8563C21.4956 37.3277 20.9174 37.7106 20.2068 37.7106C19.4924 37.7106 18.918 37.3277 18.918 36.8563V35.4129C18.918 34.9416 19.4961 34.5586 20.2068 34.5586C20.9174 34.5586 21.4956 34.9416 21.4956 35.4129V36.8563Z" fill="#236E05"/>
<path d="M21.4956 7.76187C21.4956 8.2332 20.9174 8.61614 20.2068 8.61614C19.4924 8.61614 18.918 8.2332 18.918 7.76187V6.3184C18.918 5.84707 19.4961 5.46411 20.2068 5.46411C20.9174 5.46411 21.4956 5.84707 21.4956 6.3184V7.76187Z" fill="#236E05"/>
<path d="M36.66 20.3916C37.1682 20.3916 37.5843 20.9255 37.5843 21.5883C37.5843 22.2475 37.1719 22.7851 36.66 22.7851H35.1061C34.598 22.7851 34.1855 22.2511 34.1855 21.5883C34.1855 20.9292 34.598 20.3916 35.1061 20.3916H36.66Z" fill="#236E05"/>
<path d="M5.28286 20.3916C5.79101 20.3916 6.20343 20.9292 6.20343 21.5883C6.20343 22.2511 5.79101 22.7851 5.28286 22.7851H3.72894C3.22079 22.7851 2.80469 22.2511 2.80469 21.5883C2.80469 20.9292 3.21711 20.3916 3.72894 20.3916H5.28286Z" fill="#236E05"/>
<path d="M28.3996 25.2901C28.5948 25.4006 28.5175 25.8425 28.2302 26.277C27.943 26.7115 27.5564 26.9766 27.3612 26.8661L19.4149 22.3775C19.2234 22.267 19.297 21.8251 19.5843 21.3906C19.8715 20.9561 20.2581 20.691 20.4533 20.8014L28.3959 25.2901H28.3996Z" fill="#231F20"/>
<path d="M28.2645 26.2054C28.5149 25.793 28.5738 25.3953 28.3897 25.2886L22.9473 22.2139C24.7148 23.5468 26.4859 24.8798 28.2645 26.2054Z" fill="#414042"/>
<path d="M21.0229 21.2062C21.0229 21.4603 20.6473 21.6628 20.1833 21.6628C19.7194 21.6628 19.3438 21.4566 19.3438 21.2062V10.8443C19.3438 10.5902 19.7194 10.3877 20.1833 10.3877C20.6473 10.3877 21.0229 10.5902 21.0229 10.8443V21.2062Z" fill="#231F20"/>
<path d="M19.9314 10.4133C19.5926 10.4722 19.3496 10.6416 19.3496 10.8478V21.2098C19.3496 21.4123 19.5963 21.5853 19.9314 21.6443V10.417V10.4133Z" fill="#414042"/>
<path d="M22.0758 21.6299C22.0758 22.5947 21.2326 23.3753 20.1942 23.3753C19.1558 23.3753 18.3125 22.5947 18.3125 21.6299C18.3125 20.6652 19.1558 19.8845 20.1942 19.8845C21.2326 19.8845 22.0758 20.6652 22.0758 21.6299Z" fill="#231F20"/>
<path d="M20.949 20.6976C21.2988 20.6976 21.6081 20.7602 21.8806 20.867C21.575 20.2852 20.938 19.8801 20.1942 19.8801C19.1558 19.8801 18.3125 20.6608 18.3125 21.6255C18.3125 21.9864 18.4303 22.3252 18.6365 22.605C18.8354 21.585 19.6087 20.6976 20.9527 20.6976H20.949Z" fill="#414042"/>
</svg>
